<?xml version="1.0" standalone="no"?>
<!DOCTYPE svg PUBLIC "-//W3C//DTD SVG 20010904//EN"
 "http://www.w3.org/TR/2001/REC-SVG-20010904/DTD/svg10.dtd">
<svg version="1.0" xmlns="http://www.w3.org/2000/svg"
 width="64.000000pt" height="64.000000pt" viewBox="0 0 64.000000 64.000000"
 preserveAspectRatio="xMidYMid meet">

<g transform="translate(0.000000,64.000000) scale(0.100000,-0.100000)"
fill="#000000" stroke="none">
<path d="M2 505 c1 -74 8 -139 13 -144 15 -15 30 0 43 45 15 51 81 128 133
154 21 11 42 20 46 20 4 -1 -10 -10 -32 -22 -95 -49 -149 -134 -149 -238 0
-106 54 -190 154 -241 93 -47 228 -21 301 58 95 102 98 261 6 361 l-21 22 23
23 22 22 29 -35 c16 -19 39 -57 49 -85 l20 -50 0 122 1 123 -321 -1 -321 0 4
-134z m157 87 c-58 -38 -116 -106 -131 -155 -7 -22 -14 -35 -16 -29 -5 15 23
77 53 117 27 34 109 95 129 95 5 0 -10 -13 -35 -28z m124 -9 c-7 -2 -19 -2
-25 0 -7 3 -2 5 12 5 14 0 19 -2 13 -5z"/>
<path d="M0 123 l0 -123 123 0 122 1 -46 18 c-87 34 -154 102 -185 188 -12 36
-13 31 -14 -84z"/>
<path d="M630 225 c0 -59 -102 -173 -183 -204 l-52 -20 123 0 122 -1 0 120 c0
66 -2 120 -5 120 -3 0 -5 -7 -5 -15z"/>
</g>
</svg>
